<svg xmlns="http://www.w3.org/2000/svg" width="24" height="24" viewBox="0 0 48 48"><g><path fill="#4285F4" d="M44.5 20H24v8.5h11.7C34.7 33.1 30.1 36 24 36c-6.6 0-12-5.4-12-12s5.4-12 12-12c3.1 0 5.9 1.1 8.1 2.9l6.4-6.4C34.5 5.1 29.6 3 24 3 12.4 3 3 12.4 3 24s9.4 21 21 21c10.5 0 20-7.5 20-21 0-1.3-.1-2.7-.5-4z"/><path fill="#34A853" d="M6.3 14.7l7 5.1C15.5 16.1 19.4 13 24 13c3.1 0 5.9 1.1 8.1 2.9l6.4-6.4C34.5 5.1 29.6 3 24 3 15.1 3 7.6 8.7 6.3 14.7z"/><path fill="#FBBC05" d="M24 45c6.1 0 11.2-2 14.9-5.4l-6.9-5.7C29.7 35.7 27 36.5 24 36.5c-6.1 0-11.2-4.1-13.1-9.6l-7 5.4C7.6 39.3 15.1 45 24 45z"/><path fill="#EA4335" d="M44.5 20H24v8.5h11.7c-1.2 3.2-4.1 5.5-7.7 5.5-4.6 0-8.3-3.7-8.3-8.3s3.7-8.3 8.3-8.3c2.1 0 4 .8 5.5 2.1l6.4-6.4C34.5 5.1 29.6 3 24 3c-6.6 0-12 5.4-12 12s5.4 12 12 12c3.1 0 5.9-1.1 8.1-2.9l6.4 6.4C34.5 42.9 29.6 45 24 45z"/></g></svg> 